Coordinates
version=1
nRows=11
nColumns=33
inDegrees=yes

Units are S.I. units (second, meters, Newtons, ...)
Angles are in degrees.

endheader
time	ground_thorax_rot_x	ground_thorax_rot_y	ground_thorax_rot_z	ground_thorax_tx	ground_thorax_ty	ground_thorax_tz	clav_prot_r	clav_elev_r	scapula_abduction_r	scapula_elevation_r	scapula_upward_rot_r	scapula_winging_r	shoulder_elv_r	plane_of_elev_r	axial_rot_r	elbow_flexion_r	pro_sup_r	wrist_flex_r	wrist_dev_r	clav_prot_l	clav_elev_l	scapula_abduction_l	scapula_elevation_l	scapula_upward_rot_l	scapula_winging_l	shoulder_elv_l	plane_of_elev_l	axial_rot_l	elbow_flexion_l	pro_sup_l	wrist_flex_l	wrist_dev_l	
5.9200	-40.558257	-13.608458	13.195379	-200.084648	822.207447	-11.927525	5.158593	-45.000000	33.428584	-45.000000	-20.915325	1690.738721	-292.970916	21.580602	-180.000000	726.204134	267.512225	18.122779	10.774427	15.154190	38.276562	-33.995615	-45.000000	-45.000000	-637.572281	-3530.513375	17.463493	-51.366135	9.482837	35.097496	8.506339	-22.406854	
5.9300	-40.540397	-13.303787	12.941356	-200.773290	823.118836	-12.027839	4.819541	-45.000000	33.400007	-45.000000	-20.497590	1690.801512	-292.879595	21.535990	-180.000000	726.110896	267.666672	18.217086	10.679823	15.184079	38.304991	-34.027137	-45.000000	-45.000000	-637.603550	-3530.490375	17.490158	-51.327568	9.565637	35.319096	8.632023	-22.259883	
5.9400	-40.525199	-13.007343	12.724709	-201.410898	823.996407	-12.117027	4.406141	-45.000000	33.315591	-45.000000	-20.080040	1690.912066	-292.725561	21.437245	-180.000000	726.021997	267.836476	18.318963	10.575351	15.207345	38.342278	-34.088747	-45.000000	-45.000000	-637.607520	-3530.465131	17.504496	-51.288402	9.693791	35.557577	8.807625	-22.033711	
5.9500	-40.495497	-12.801506	12.584138	-201.934567	824.800044	-12.182702	4.212459	-45.000000	33.325143	-45.000000	-19.771426	1690.933117	-292.651562	21.400674	-180.000000	725.953230	268.020402	18.387816	10.506896	15.214953	38.346122	-34.100245	-45.000000	-45.000000	-637.600048	-3530.415618	17.507816	-51.330633	9.796977	35.803365	8.842369	-21.934409	
5.9600	-40.457884	-12.646125	12.494015	-202.341873	825.528074	-12.222751	4.125434	-45.000000	33.366679	-45.000000	-19.533797	1690.913755	-292.612758	21.395055	-180.000000	725.895706	268.236288	18.444278	10.460209	15.212759	38.337630	-34.102853	-45.000000	-45.000000	-637.582844	-3530.362570	17.498306	-51.420026	9.887233	36.066831	8.786996	-21.899427	
5.9700	-40.407470	-12.554705	12.464364	-202.623012	826.175112	-12.233720	4.114078	-45.000000	33.432475	-45.000000	-19.347456	1690.883739	-292.577519	21.394440	-180.000000	725.854562	268.500278	18.486339	10.424113	15.203418	38.317218	-34.087572	-45.000000	-45.000000	-637.555045	-3530.303127	17.475976	-51.553341	9.986716	36.360865	8.700911	-21.878685	
5.9800	-40.353603	-12.478170	12.446640	-202.785150	826.747479	-12.215545	4.149909	-45.000000	33.502521	-45.000000	-19.195602	1690.837610	-292.567681	21.421589	-180.000000	725.817099	268.825356	18.533147	10.402510	15.188782	38.296522	-34.088371	-45.000000	-45.000000	-637.529370	-3530.254956	17.445380	-51.706442	10.071162	36.681412	8.545694	-21.900503	
5.9900	-40.289603	-12.425560	12.451585	-202.843135	827.258104	-12.170295	4.170363	-45.000000	33.561981	-45.000000	-19.043912	1690.818579	-292.527926	21.432911	-180.000000	725.785347	269.228698	18.579489	10.374054	15.174804	38.277101	-34.089956	-45.000000	-45.000000	-637.507716	-3530.212956	17.410210	-51.867091	10.173225	37.044590	8.423670	-21.884543	
6.0000	-40.227153	-12.366736	12.442221	-202.811590	827.720671	-12.101272	4.198324	-45.000000	33.627074	-45.000000	-18.893514	1690.796167	-292.509156	21.455412	-180.000000	725.746206	269.709421	18.636605	10.348447	15.164280	38.265343	-34.106370	-45.000000	-45.000000	-637.493717	-3530.182565	17.380743	-52.026941	10.261745	37.436889	8.261799	-21.893416	
6.0100	-40.162235	-12.327978	12.449525	-202.704616	828.149537	-12.013013	4.210284	-45.000000	33.696630	-45.000000	-18.727200	1690.792875	-292.465781	21.454528	-180.000000	725.711791	270.266641	18.688060	10.311231	15.160014	38.252536	-34.112445	-45.000000	-45.000000	-637.479716	-3530.142428	17.355455	-52.187122	10.372220	37.865197	8.149159	-21.866376	
6.0200	-40.105668	-12.272133	12.437672	-202.535490	828.558756	-11.911236	4.226092	-45.000000	33.776069	-45.000000	-18.555644	1690.778771	-292.444099	21.460685	-180.000000	725.665749	270.886297	18.753567	10.275451	15.158742	38.247889	-34.135674	-45.000000	-45.000000	-637.466215	-3530.106052	17.341663	-52.336989	10.467202	38.309951	7.995580	-21.866356	
